<?xml version="1.0" standalone="no"?>
<!DOCTYPE svg PUBLIC "-//W3C//DTD SVG 20010904//EN"
 "http://www.w3.org/TR/2001/REC-SVG-20010904/DTD/svg10.dtd">
<svg version="1.0" xmlns="http://www.w3.org/2000/svg"
 width="2362.000000pt" height="2374.000000pt" viewBox="0 0 2362.000000 2374.000000"
 preserveAspectRatio="xMidYMid meet">

<g transform="translate(0.000000,2374.000000) scale(0.100000,-0.100000)"
fill="#000000" stroke="none">
<path d="M10875 11148 c-460 -31 -822 -301 -998 -743 -130 -325 -139 -733 -25
-1070 64 -191 188 -387 322 -513 436 -407 1192 -403 1580 8 151 161 244 352
281 583 8 51 15 100 15 110 0 16 -17 17 -215 17 -164 0 -217 -3 -219 -12 -2
-7 -11 -49 -19 -93 -38 -206 -147 -377 -302 -470 -101 -60 -180 -80 -325 -80
-102 1 -139 5 -200 24 -266 82 -434 276 -516 597 -59 234 -48 533 27 756 44
132 108 237 199 329 139 140 287 199 495 199 225 0 383 -71 497 -221 45 -59
99 -169 117 -236 l12 -43 219 0 220 0 0 33 c0 17 -9 69 -20 115 -111 464 -572
750 -1145 710z"/>
<path d="M18568 10678 l-3 -273 -152 -3 -153 -3 0 -149 0 -150 155 0 154 0 3
-622 c3 -621 4 -623 26 -685 41 -110 117 -175 245 -209 82 -22 240 -28 370
-14 l117 12 0 152 0 152 -129 -1 c-145 0 -166 8 -206 76 -19 33 -20 55 -23
587 l-3 552 181 0 180 0 0 150 0 150 -180 0 -180 0 0 275 0 275 -200 0 -200 0
-2 -272z"/>
<path d="M13008 10435 c-385 -73 -636 -339 -704 -747 -24 -144 -15 -355 20
-493 114 -440 455 -682 931 -661 166 7 271 32 405 98 92 45 117 63 201 147 86
87 101 107 152 211 31 63 65 150 76 193 75 292 36 632 -100 860 -50 85 -154
196 -233 249 -82 56 -190 104 -288 129 -110 27 -350 35 -460 14z m304 -316
c180 -38 311 -172 380 -389 20 -66 23 -95 23 -240 0 -145 -3 -174 -23 -240
-35 -110 -75 -182 -141 -253 -94 -100 -203 -147 -341 -147 -241 0 -419 154
-491 425 -29 108 -31 317 -5 420 80 314 318 482 598 424z"/>
<path d="M17232 10430 c-138 -37 -266 -123 -354 -238 l-48 -63 0 135 0 136
-190 0 -190 0 0 -910 0 -910 200 0 199 0 3 598 c3 591 3 598 25 657 49 128
137 221 250 266 46 18 79 23 158 23 159 1 248 -42 301 -146 51 -101 54 -134
54 -790 l0 -608 206 0 205 0 -4 688 c-4 757 -3 742 -69 881 -41 87 -139 184
-229 228 -102 49 -171 64 -314 69 -108 3 -143 1 -203 -16z"/>
<path d="M20393 10435 c-158 -43 -316 -174 -384 -320 l-28 -60 -1 173 0 172
-190 0 -190 0 0 -910 0 -910 205 0 204 0 3 523 3 522 28 81 c86 255 281 385
530 354 45 -5 85 -10 89 -10 5 0 8 87 8 194 0 192 0 194 -22 200 -41 11 -202
5 -255 -9z"/>
<path d="M20735 10433 c3 -10 159 -419 345 -910 l339 -891 -40 -122 c-70 -208
-126 -263 -268 -264 -42 -1 -106 3 -144 8 l-67 8 2 -168 3 -169 50 -7 c28 -5
113 -9 190 -10 218 -3 315 32 436 153 56 56 77 88 132 200 36 74 108 249 160
389 182 489 650 1765 655 1783 4 16 -11 17 -205 17 l-209 0 -229 -675 c-127
-371 -232 -675 -235 -675 -3 0 -112 303 -242 673 l-236 672 -222 3 c-209 2
-222 1 -215 -15z"/>
<path d="M14440 9788 c0 -649 5 -738 46 -869 59 -187 199 -316 395 -364 102
-25 281 -30 364 -11 116 28 210 79 290 160 39 39 80 85 92 101 l22 30 0 -127
1 -128 195 0 195 0 0 910 0 910 -200 0 -200 0 0 -547 c0 -302 -5 -580 -10
-619 -24 -186 -103 -298 -248 -355 -82 -32 -276 -34 -342 -3 -65 30 -107 69
-136 125 -52 104 -54 125 -54 787 l0 612 -205 0 -205 0 0 -612z"/>
<path d="M1370 4790 l0 -3030 2113 2 2112 3 0 565 0 565 -1432 3 -1433 2 0
2460 0 2460 -680 0 -680 0 0 -3030z"/>
<path d="M10267 7813 c-4 -3 -7 -1367 -7 -3030 l0 -3023 624 0 c344 0 627 3
629 8 3 6 -2 105 -18 351 l-6 94 113 -109 c180 -174 328 -277 512 -357 327
-141 771 -151 1165 -25 773 247 1243 1056 1286 2213 15 399 -47 831 -167 1160
-258 706 -765 1130 -1453 1215 -132 16 -412 14 -541 -5 -331 -49 -588 -161
-814 -356 l-70 -60 -2 963 -3 963 -621 3 c-341 1 -624 -1 -627 -5z m2379
-2553 c216 -55 370 -182 483 -400 126 -243 181 -572 160 -957 -31 -584 -213
-979 -522 -1132 -122 -60 -195 -75 -367 -74 -171 1 -257 19 -390 85 -69 34
-101 58 -175 132 -96 97 -136 157 -190 283 -100 231 -142 510 -132 878 4 146
11 245 26 325 83 472 297 760 633 849 102 28 107 28 259 30 106 1 153 -3 215
-19z"/>
<path d="M7570 6319 c-685 -75 -1163 -359 -1402 -833 -92 -184 -158 -427 -161
-601 l-2 -90 576 -3 575 -2 10 84 c29 234 191 382 494 452 107 25 378 30 499
10 228 -38 359 -113 422 -241 27 -56 32 -76 32 -142 1 -128 -47 -199 -174
-263 -91 -46 -185 -68 -484 -111 -606 -86 -765 -114 -1005 -174 -387 -98 -650
-228 -851 -422 -183 -176 -284 -375 -331 -648 -27 -159 -21 -459 11 -600 64
-274 176 -482 360 -665 318 -316 784 -468 1313 -431 415 30 657 124 1092 425
76 53 140 95 141 94 1 -2 15 -91 31 -198 l29 -195 663 -3 c364 -1 662 0 662 3
0 3 -11 23 -25 45 -40 64 -82 204 -106 355 -22 137 -22 166 -29 1405 -5 803
-12 1303 -19 1370 -40 383 -110 577 -287 806 -237 306 -616 486 -1174 560
-147 19 -725 28 -860 13z m1029 -3194 c-59 -85 -198 -223 -284 -282 -340 -230
-824 -278 -1090 -108 -70 44 -140 125 -167 193 -19 48 -22 76 -22 172 0 158
19 207 123 311 65 65 93 85 191 132 140 69 301 115 570 163 408 73 559 109
695 168 l30 12 3 -343 2 -344 -51 -74z"/>
<path d="M16975 6324 c-16 -2 -73 -9 -125 -15 -350 -39 -743 -177 -1015 -356
-526 -348 -841 -867 -952 -1573 -28 -178 -25 -685 4 -865 112 -678 421 -1186
923 -1520 656 -436 1663 -484 2406 -113 221 110 387 230 565 407 253 253 422
527 538 877 85 257 119 456 128 749 18 611 -140 1156 -460 1588 -74 100 -245
277 -347 360 -304 245 -690 403 -1106 452 -116 13 -470 19 -559 9z m365 -1019
c449 -68 721 -400 796 -969 23 -173 15 -533 -16 -705 -55 -313 -166 -557 -324
-716 -77 -77 -135 -117 -239 -165 -123 -57 -192 -71 -362 -77 -168 -6 -276 9
-394 53 -373 140 -601 539 -641 1127 -40 572 130 1075 434 1291 208 148 468
204 746 161z"/>
<path d="M21930 6284 c-445 -57 -725 -268 -915 -690 l-45 -99 0 353 0 352
-620 0 -620 0 0 -2220 0 -2220 649 0 649 0 5 1158 c5 1189 7 1257 47 1488 61
344 211 556 470 660 165 67 395 95 623 75 76 -7 145 -15 153 -18 12 -4 14 81
14 570 0 395 -3 578 -11 582 -12 8 -348 15 -399 9z"/>
</g>
</svg>
